<?xml version="1.0" encoding="UTF-8"?>
<svg width="60" height="60" viewBox="0 0 60 60" fill="none" xmlns="http://www.w3.org/2000/svg">
    <path d="M30 5C16.2 5 5 16.2 5 30C5 43.8 16.2 55 30 55C43.8 55 55 43.8 55 30C55 16.2 43.8 5 30 5ZM30 50C18.95 50 10 41.05 10 30C10 18.95 18.95 10 30 10C41.05 10 50 18.95 50 30C50 41.05 41.05 50 30 50Z" fill="#302925"/>
    <path d="M35 20H25C22.25 20 20 22.25 20 25V35C20 37.75 22.25 40 25 40H35C37.75 40 40 37.75 40 35V25C40 22.25 37.75 20 35 20ZM35 35H25V25H35V35Z" fill="#302925"/>
</svg> 